<?xml version="1.0" standalone="no"?>
<!DOCTYPE svg PUBLIC "-//W3C//DTD SVG 20010904//EN"
 "http://www.w3.org/TR/2001/REC-SVG-20010904/DTD/svg10.dtd">
<svg version="1.0" xmlns="http://www.w3.org/2000/svg"
 width="832.000000pt" height="832.000000pt" viewBox="0 0 832.000000 832.000000"
 preserveAspectRatio="xMidYMid meet">
<metadata>
Created by potrace 1.11, written by Peter Selinger 2001-2013
</metadata>
<g transform="translate(0.000000,832.000000) scale(0.100000,-0.100000)"
fill="#000000" stroke="none">
<path d="M2530 5669 c-96 -39 -179 -71 -185 -73 -5 -2 -19 -7 -30 -11 -45 -19
-361 -146 -370 -149 -14 -4 -45 -16 -80 -31 -36 -14 -152 -60 -180 -71 -11 -4
-23 -6 -27 -6 -5 1 -8 -3 -8 -8 0 -6 -5 -10 -11 -10 -15 0 -268 -98 -311 -121
-10 -5 -22 -9 -28 -9 -5 0 -33 -11 -62 -24 -29 -13 -97 -40 -150 -61 -92 -35
-98 -39 -99 -66 0 -16 -1 -129 -1 -251 l-1 -221 38 -19 c20 -11 44 -21 54 -23
15 -3 54 -19 126 -50 17 -7 107 -43 200 -80 94 -37 184 -73 200 -80 17 -7 82
-33 145 -58 63 -25 133 -53 155 -63 40 -16 40 -17 15 -27 -14 -6 -27 -11 -30
-12 -3 -1 -18 -7 -35 -14 -16 -7 -70 -28 -120 -47 -49 -19 -99 -39 -110 -44
-38 -17 -200 -81 -210 -84 -5 -1 -14 -4 -20 -7 -5 -4 -28 -12 -50 -19 -22 -7
-44 -16 -50 -20 -5 -4 -39 -17 -75 -30 -36 -13 -76 -30 -89 -37 -14 -6 -28
-10 -33 -7 -4 3 -8 1 -8 -4 0 -5 -20 -15 -45 -22 -25 -7 -48 -17 -51 -22 -6
-10 -9 -496 -3 -502 2 -2 103 -43 224 -91 121 -48 234 -93 250 -100 17 -8 163
-66 325 -130 162 -64 309 -122 325 -129 17 -8 62 -26 100 -40 39 -15 79 -31
90 -36 42 -19 201 -81 216 -85 8 -2 35 -12 60 -23 24 -11 63 -27 86 -36 l41
-15 0 314 0 315 -42 11 c-22 6 -47 16 -55 22 -8 7 -16 11 -18 9 -2 -2 -70 18
-151 44 -81 26 -150 49 -154 50 -5 1 -10 3 -13 4 -3 1 -9 4 -15 5 -5 1 -11 3
-12 5 -2 1 -10 3 -18 5 -8 2 -114 37 -235 78 l-220 74 155 52 c85 28 162 54
170 56 8 2 110 35 225 73 116 38 249 81 297 97 l87 28 -1 326 0 326 -156 53
c-87 29 -164 54 -172 56 -22 6 -452 147 -475 156 -11 5 -44 16 -73 25 -29 10
-52 18 -50 20 2 2 116 40 253 85 138 45 264 87 280 93 17 7 32 12 35 12 3 1
85 27 182 59 l177 58 0 314 c0 173 -1 314 -2 314 -1 -1 -81 -32 -177 -71z"/>
<path d="M4393 5703 c-8 -21 -16 -42 -18 -48 -1 -5 -6 -19 -10 -30 -21 -52
-47 -121 -50 -130 -1 -5 -5 -17 -8 -25 -3 -8 -32 -85 -63 -170 -31 -85 -61
-166 -67 -180 -6 -14 -11 -29 -13 -35 -4 -14 -231 -622 -249 -665 -8 -19 -30
-80 -50 -135 -20 -55 -43 -114 -51 -132 -8 -17 -14 -35 -14 -39 0 -5 -20 -60
-44 -124 -25 -63 -74 -196 -111 -295 -36 -99 -71 -191 -77 -205 -6 -14 -13
-32 -14 -40 -2 -8 -7 -23 -13 -35 -10 -20 -72 -187 -98 -260 -7 -22 -18 -49
-22 -60 -5 -11 -21 -54 -36 -95 -15 -41 -29 -82 -32 -90 -4 -8 -7 -17 -8 -20
-1 -3 -7 -18 -13 -33 -7 -16 -12 -31 -12 -34 0 -3 -7 -19 -14 -36 -8 -18 -25
-61 -36 -97 -12 -36 -26 -71 -32 -77 -8 -10 3 -13 51 -14 101 -1 151 -1 159 1
4 2 11 2 16 1 13 -3 129 -3 141 -1 6 1 14 2 19 1 24 -5 137 -4 142 1 3 3 17 3
31 -1 14 -4 40 -5 58 -3 30 4 34 9 60 75 14 40 30 81 35 92 5 11 59 155 120
320 61 165 114 307 117 315 4 8 7 17 7 20 2 8 57 153 67 175 5 11 38 99 73
195 36 96 93 247 126 335 34 88 62 165 64 170 2 6 6 17 9 25 13 33 202 540
228 612 15 43 33 87 39 98 6 11 8 20 4 20 -3 0 -2 6 3 13 6 6 20 39 31 72 12
33 42 114 67 180 26 66 53 140 62 165 8 25 21 59 28 75 17 42 49 129 50 137 0
3 3 10 8 14 4 4 7 13 7 21 0 11 -61 13 -326 13 l-325 0 -16 -37z"/>
<path d="M5591 5426 l0 -314 342 -113 c188 -62 344 -113 347 -114 3 0 35 -11
71 -23 36 -12 74 -24 85 -26 10 -3 34 -11 53 -19 l34 -14 -39 -12 c-21 -7 -46
-15 -54 -18 -8 -3 -19 -7 -25 -9 -5 -1 -37 -12 -70 -23 -33 -12 -67 -23 -75
-26 -8 -2 -78 -25 -155 -50 -77 -26 -147 -48 -155 -50 -8 -2 -49 -16 -90 -30
-41 -15 -79 -28 -85 -29 -5 -1 -35 -11 -65 -21 -30 -11 -57 -20 -60 -20 -3 -1
-17 -5 -32 -9 l-27 -8 2 -326 2 -327 140 -48 c77 -26 145 -49 150 -51 15 -3
147 -47 165 -53 8 -4 17 -7 20 -7 15 -4 368 -119 385 -126 11 -4 31 -12 43
-17 20 -7 -2 -17 -140 -63 -89 -30 -165 -55 -168 -55 -3 -1 -138 -45 -302 -99
l-296 -98 0 -315 c0 -230 3 -313 12 -310 131 54 293 119 301 121 6 2 21 8 35
13 14 6 61 25 105 42 44 17 89 36 100 41 29 13 378 152 390 154 6 2 21 8 35
13 14 6 106 43 205 82 99 40 189 76 200 81 26 12 177 71 190 75 6 1 30 11 55
22 25 11 55 23 68 27 17 6 22 15 23 44 0 20 0 133 1 251 l0 214 -24 13 c-12 6
-72 31 -133 54 -60 23 -123 48 -140 55 -16 7 -106 43 -200 80 -93 37 -188 74
-210 84 -22 10 -58 24 -80 31 -22 7 -44 16 -50 20 -5 3 -29 12 -53 20 -43 13
-77 40 -52 40 10 0 513 198 815 321 17 7 32 13 35 13 3 1 25 10 48 20 33 15
42 24 42 45 1 39 1 411 1 447 -1 25 -7 33 -38 46 -107 44 -773 308 -778 308
-4 0 -21 6 -38 14 -49 23 -111 49 -122 52 -10 2 -389 152 -430 169 -11 4 -22
9 -25 10 -3 1 -16 6 -30 12 -14 6 -50 21 -80 32 -30 12 -64 26 -75 30 -11 5
-39 16 -62 25 l-42 15 0 -313z"/>
</g>
</svg>
